<svg width="50" height="50" viewBox="0 0 50 50" fill="none" xmlns="http://www.w3.org/2000/svg">
<rect width="50" height="50" rx="10" fill="#FFD600" fill-opacity="0.15"/>
<path d="M21.3708 31.2349C18.8013 31.2349 15.9565 30.799 14.2817 29.7207V32.7032C14.2817 34.0338 17.4478 35.0891 21.3708 35.0891C22.9998 35.0891 24.4909 34.9055 25.6839 34.5844C24.7891 33.552 24.0549 32.3818 23.5732 31.0971C22.8392 31.189 22.1049 31.2349 21.3707 31.2349L21.3708 31.2349Z" fill="#FFD600"/>
<path d="M21.3708 25.8207C18.8013 25.8207 15.9565 25.3848 14.2817 24.3296V27.3121C14.2817 28.6427 17.4478 29.698 21.3708 29.698C21.9672 29.698 22.5408 29.6751 23.0914 29.6291C22.862 28.7116 22.7243 27.7478 22.7243 26.7614V25.775C22.2886 25.7979 21.8298 25.8207 21.3708 25.8207Z" fill="#FFD600"/>
<path d="M24.9497 22.6316C26.0739 22.5399 27.1522 22.0581 27.955 21.255L28.4369 20.7732V18.8918C26.762 19.9703 23.9403 20.4062 21.3708 20.4062C18.8013 20.4062 15.9565 19.9703 14.2817 18.892V21.8745C14.2817 23.2051 17.4478 24.2604 21.3708 24.2604C21.8984 24.2604 22.3803 24.2375 22.885 24.1916C23.2062 23.3657 24.0092 22.7233 24.9499 22.6316L24.9497 22.6316Z" fill="#FFD600"/>
<path d="M28.4599 16.483C28.4599 17.8009 25.286 18.8691 21.3708 18.8691C17.4557 18.8691 14.2817 17.8009 14.2817 16.483C14.2817 15.1654 17.4556 14.0972 21.3708 14.0972C25.2861 14.0972 28.4599 15.1654 28.4599 16.483Z" fill="#FFD600"/>
<path d="M34.8606 24.1688C33.3694 24.054 31.9469 23.4117 30.8917 22.3334L30.5934 22.0351C30.4327 21.8744 30.2034 21.7827 29.9739 21.7827C29.7444 21.7827 29.5151 21.8744 29.3544 22.0351L29.0561 22.3334C28.0007 23.3888 26.5784 24.054 25.0872 24.1688C24.6284 24.2147 24.2842 24.5816 24.2842 25.0406V26.7613C24.2842 30.5008 26.3031 33.9421 29.5608 35.7774C29.6985 35.8462 29.8361 35.8922 29.9968 35.8922C30.1574 35.8922 30.2951 35.8462 30.4327 35.7774C33.6905 33.942 35.7093 30.5008 35.7093 26.7613V25.0406C35.6636 24.5818 35.3194 24.1916 34.8605 24.1688H34.8606ZM32.3829 27.9313L29.9051 30.409C29.7675 30.5466 29.5611 30.6385 29.3545 30.6385C29.148 30.6385 28.9645 30.5468 28.8038 30.409L27.542 29.1471C27.2437 28.8488 27.2437 28.3671 27.542 28.0689C27.8403 27.7706 28.322 27.7706 28.6203 28.0689L29.3545 28.8031L31.3046 26.8529C31.6029 26.5546 32.0846 26.5546 32.3829 26.8529C32.6812 27.1512 32.6812 27.6329 32.3829 27.9312L32.3829 27.9313Z" fill="#FFD600"/>
</svg>
