<svg width="50" height="50" viewBox="0 0 50 50" fill="none" xmlns="http://www.w3.org/2000/svg">
<rect width="50" height="50" rx="10" fill="#029262" fill-opacity="0.15"/>
<path fill-rule="evenodd" clip-rule="evenodd" d="M30.1403 24.5617C33.5053 24.5617 36.2333 27.2895 36.2333 30.6548C36.2333 34.0199 33.5055 36.7478 30.1403 36.7478C26.7751 36.7478 24.0472 34.0201 24.0472 30.6548C24.0472 27.2896 26.7753 24.5617 30.1403 24.5617ZM23.3528 29.5551C20.9467 29.6749 18.1657 29.5031 15.8775 28.7749C15.0464 28.5102 14.3697 28.1843 13.8933 27.811V31.9939C13.8933 32.5524 14.7417 33.1019 16.1131 33.5384C18.5558 34.3159 21.685 34.4419 24.2574 34.2161C23.6274 33.1774 23.2645 31.9587 23.2645 30.6552C23.2645 30.2803 23.2952 29.913 23.3528 29.5551ZM13.8933 20.9812C13.8933 21.5396 14.7417 22.0891 16.1131 22.5256C19.374 23.5636 24.6555 23.5636 27.9166 22.5256C29.2882 22.0891 30.1362 21.5397 30.1362 20.9812V16.7982C29.6598 17.1713 28.9831 17.4978 28.152 17.7623C24.7262 18.8525 19.3034 18.8525 15.8775 17.7623C15.0463 17.4976 14.3696 17.1713 13.8932 16.7984L13.8933 20.9812ZM13.8933 15.4746C13.8933 14.9161 14.7417 14.3666 16.1129 13.9301C19.3738 12.8921 24.6553 12.8921 27.9165 13.9301C29.2877 14.3666 30.136 14.916 30.136 15.4746C30.136 16.033 29.2877 16.5826 27.9165 17.019C24.6556 18.057 19.374 18.057 16.1129 17.019C14.7417 16.5824 13.8933 16.0331 13.8933 15.4746ZM13.8933 26.4873C13.8933 27.0458 14.7417 27.5953 16.1129 28.0318C18.367 28.7492 21.1552 28.8991 23.5282 28.7624C24.3498 25.8866 26.9966 23.781 30.1357 23.7792V22.3045C29.6593 22.6777 28.9826 23.0041 28.1515 23.2686C24.7258 24.3589 19.3029 24.3589 15.877 23.2686C15.0458 23.0039 14.3691 22.6776 13.8928 22.3047L13.8933 26.4873ZM29.4014 27.1591V29.9156H26.6445C26.6445 29.9156 25.7918 29.9156 25.7918 30.6546C25.7918 31.3935 26.6445 31.3935 26.6445 31.3935H29.4011V34.1502C29.4011 34.1502 29.4011 35.0029 30.14 35.0029C30.8789 35.0029 30.8789 34.1502 30.8789 34.1502V31.3935H33.6354C33.6354 31.3935 34.4881 31.3935 34.4881 30.6546C34.4881 29.9156 33.6354 29.9156 33.6354 29.9156H30.8789V27.1591C30.8789 27.1591 30.8789 26.3064 30.1402 26.3064C29.4014 26.3064 29.4014 27.1591 29.4014 27.1591Z" fill="#029262"/>
</svg>
