<svg width="50" height="50" viewBox="0 0 50 50" fill="none" xmlns="http://www.w3.org/2000/svg">
<rect width="50" height="50" rx="10" fill="#22ECA3" fill-opacity="0.15"/>
<path fill-rule="evenodd" clip-rule="evenodd" d="M36.1176 25.0048C36.1176 31.1421 31.1423 36.1173 25.0051 36.1173C18.8678 36.1173 13.8926 31.1421 13.8926 25.0048C13.8926 18.8676 18.8678 13.8923 25.0051 13.8923C31.1423 13.8923 36.1176 18.8676 36.1176 25.0048ZM25.0051 20.282C24.2379 20.282 23.616 20.9039 23.616 21.6711C23.616 22.1314 23.2429 22.5045 22.7826 22.5045C22.3223 22.5045 21.9491 22.1314 21.9491 21.6711C21.9491 19.9833 23.3173 18.6151 25.0051 18.6151C26.6928 18.6151 28.061 19.9833 28.061 21.6711C28.061 22.2782 27.8831 22.8463 27.5763 23.3231C27.3841 23.6217 27.1595 23.9069 26.9523 24.1643L26.8406 24.3028C26.6687 24.5156 26.5109 24.7108 26.3651 24.9112C26.0055 25.4054 25.8385 25.7768 25.8385 26.1161V26.6717C25.8385 27.132 25.4654 27.5051 25.0051 27.5051C24.5448 27.5051 24.1716 27.132 24.1716 26.6717V26.1161C24.1716 25.2279 24.6077 24.4934 25.0173 23.9305C25.1903 23.6927 25.3799 23.4581 25.5524 23.2448L25.6536 23.1194C25.8594 22.8636 26.0346 22.6386 26.1746 22.4211C26.3135 22.2052 26.3941 21.9489 26.3941 21.6711C26.3941 20.9039 25.7722 20.282 25.0051 20.282ZM25.8385 29.4498C25.8385 28.9895 25.4654 28.6164 25.0051 28.6164C24.5448 28.6164 24.1716 28.9895 24.1716 29.4498V30.5611C24.1716 31.0214 24.5448 31.3945 25.0051 31.3945C25.4654 31.3945 25.8385 31.0214 25.8385 30.5611V29.4498Z" fill="#22ECA3"/>
</svg>
