<svg width="24" height="24" viewBox="0 0 24 24" fill="none" xmlns="http://www.w3.org/2000/svg">
<path d="M13.696 17.7031H11.6378C11.0964 17.7031 10.6548 17.2615 10.6548 16.72V7.20814C10.6548 6.66666 11.0964 6.2251 11.6378 6.2251H13.696C14.2375 6.2251 14.6791 6.66666 14.6791 7.20814V16.72C14.6791 17.2615 14.2375 17.7031 13.696 17.7031Z" fill="#B9C9D2"/>
<path d="M13.696 17.3191H12.3481C11.9333 17.3191 11.3151 17.4382 11.0963 16.9773C11.0118 16.8007 11.0387 16.5741 11.0387 16.3822V15.2877V8.48337V7.46967C11.0387 7.22003 11.0195 6.97815 11.2153 6.78235C11.3766 6.6211 11.5687 6.6057 11.7799 6.6057H12.5325H13.408C13.5693 6.6057 13.7498 6.58655 13.9034 6.64025C14.2374 6.76695 14.2952 7.0703 14.2952 7.37753V8.30685V11.6132V15.0808C14.2952 15.6223 14.3143 16.1714 14.2952 16.7129C14.2835 17.0544 14.0339 17.3079 13.6959 17.3194C13.2044 17.3309 13.2006 18.0989 13.6959 18.0874C14.4793 18.0643 15.0592 17.4499 15.063 16.6704V15.914V12.6116V8.91353V7.6656C15.063 7.47743 15.0745 7.28537 15.0553 7.09735C15.0054 6.57891 14.6829 6.13347 14.199 5.93767C13.9571 5.84164 13.7113 5.83789 13.4578 5.83789H11.7644C11.4611 5.83789 11.1615 5.88008 10.9004 6.05298C10.505 6.31414 10.2783 6.73657 10.2668 7.20878C10.263 7.38932 10.2668 7.56971 10.2668 7.75026V10.8415V14.6201C10.2668 15.3113 10.2553 16.0064 10.2668 16.6976C10.2784 17.4733 10.8774 18.0724 11.6531 18.0876C12.1753 18.0953 12.7014 18.0876 13.2237 18.0876H13.6922C14.1914 18.0874 14.1914 17.3194 13.696 17.3194L13.696 17.3191Z" fill="#B9C9D2"/>
<path d="M8.05464 17.7032C7.72826 17.7032 7.45947 17.4383 7.45947 17.108V6.81685C7.45947 6.49046 7.72438 6.22168 8.05464 6.22168C8.38102 6.22168 8.6498 6.48659 8.6498 6.81685V17.1043C8.64592 17.4345 8.38101 17.7034 8.05464 17.7034V17.7032Z" fill="#B9C9D2"/>
<path d="M8.05507 17.3192C7.84775 17.3192 7.84387 17.1349 7.84387 16.9659V16.2823V13.7363V7.90326V7.08925C7.84387 6.98171 7.82083 6.81282 7.86302 6.72054C7.93601 6.56692 8.17025 6.57081 8.24325 6.72054C8.26628 6.76661 8.2624 6.82032 8.2624 6.87416V7.42328V12.9491V15.7561C8.2624 16.1977 8.28932 16.647 8.2624 17.0886C8.25476 17.2232 8.18566 17.3114 8.05508 17.3192C7.56356 17.3383 7.55968 18.1064 8.05508 18.0871C8.64637 18.0602 9.03047 17.6071 9.03424 17.035V16.409V13.8093V7.71534C9.03424 7.13931 9.15331 6.40594 8.61572 6.02194C7.95908 5.55346 7.10272 6.06801 7.07594 6.83595C7.07206 6.99345 7.07594 7.1547 7.07594 7.31208V13.0529V15.952V16.8275C7.07594 17.0042 7.06443 17.1924 7.1105 17.3651C7.22179 17.7875 7.62118 18.0909 8.0551 18.0909C8.54662 18.0871 8.54662 17.3192 8.0551 17.3192L8.05507 17.3192Z" fill="#B9C9D2"/>
<path d="M17.2788 17.7032C16.9524 17.7032 16.6836 17.4383 16.6836 17.108V6.81685C16.6836 6.49046 16.9485 6.22168 17.2788 6.22168C17.6051 6.22168 17.8739 6.48659 17.8739 6.81685V17.1043C17.8739 17.4345 17.609 17.7034 17.2788 17.7034V17.7032Z" fill="#B9C9D2"/>
<path d="M17.2787 17.3192C17.0714 17.3192 17.0675 17.1349 17.0675 16.9659V16.2823V13.7363V7.90326V7.08925C17.0675 6.98171 17.0445 6.81282 17.0867 6.72054C17.1596 6.56692 17.3939 6.57081 17.4669 6.72054C17.4899 6.76661 17.486 6.82032 17.486 6.87416V7.42328V12.9491V15.7561C17.486 16.1977 17.513 16.647 17.486 17.0886C17.4823 17.2232 17.4132 17.3114 17.2787 17.3192C16.7872 17.3383 16.7833 18.1064 17.2787 18.0871C17.87 18.0602 18.2541 17.6071 18.2579 17.035V16.409V13.8093V7.71534C18.2579 7.13931 18.3769 6.40594 17.8393 6.02194C17.1827 5.55346 16.3264 6.06801 16.2996 6.83595C16.2957 6.99345 16.2996 7.1547 16.2996 7.31208V13.0529V15.952V16.8275C16.2996 17.0042 16.2881 17.1924 16.3341 17.3651C16.4454 17.7875 16.8448 18.0909 17.2787 18.0909C17.7741 18.0871 17.7741 17.3192 17.2787 17.3192L17.2787 17.3192Z" fill="#B9C9D2"/>
<path d="M4.8103 17.707H3.80422C3.35113 17.707 2.98242 17.3383 2.98242 16.8852V7.05104C2.98242 6.59796 3.35113 6.22925 3.80422 6.22925H4.8103C5.26338 6.22925 5.63209 6.59796 5.63209 7.05104V16.8814C5.63597 17.3384 5.26726 17.7071 4.8103 17.7071V17.707Z" fill="#B9C9D2"/>
<path d="M4.81006 17.323H4.19559C4.01131 17.323 3.77319 17.3576 3.61195 17.2808C3.37007 17.1657 3.36619 16.9353 3.36619 16.7048V14.5506V8.2029V7.29659C3.36619 7.11231 3.34315 6.92789 3.46222 6.77816C3.6082 6.59763 3.81162 6.61303 4.02286 6.61303H4.74862C5.07111 6.61691 5.24778 6.8166 5.24778 7.12759V12.2924V15.4373C5.24778 15.9173 5.27082 16.4012 5.24778 16.8812C5.24015 17.131 5.0635 17.3152 4.81009 17.3229C4.31857 17.3383 4.3147 18.1062 4.81009 18.0908C5.50894 18.0678 6.01198 17.5226 6.01585 16.8351V16.1593V13.2371V7.28136C6.01585 6.95109 5.99281 6.63233 5.78549 6.34827C5.53973 6.01425 5.1749 5.84911 4.76402 5.84523C4.50674 5.84135 4.24558 5.84523 3.9883 5.84523C3.68884 5.84523 3.39701 5.87215 3.13959 6.04492C2.79781 6.27528 2.6059 6.64787 2.59812 7.05487C2.59424 7.21612 2.59812 7.38126 2.59812 7.54252V13.8593V16.482C2.59812 16.6318 2.59049 16.7854 2.59812 16.939C2.62504 17.4344 2.93991 17.8529 3.40452 18.0257C3.65416 18.1178 3.93447 18.0948 4.19549 18.0948H4.80996C5.30549 18.091 5.30549 17.323 4.81009 17.323L4.81006 17.323Z" fill="#B9C9D2"/>
<path d="M20.339 17.707C20.0126 17.707 19.7438 17.4421 19.7438 17.1118L19.7437 6.82441C19.7437 6.49803 20.0086 6.22925 20.3388 6.22925C20.6652 6.22925 20.934 6.49416 20.934 6.82441L20.9341 17.1118C20.9341 17.4421 20.6691 17.7071 20.339 17.7071V17.707Z" fill="#B9C9D2"/>
<path d="M20.3393 17.3228C20.1319 17.3228 20.128 17.1386 20.128 16.9695V16.2859V13.74V7.90692V7.09291C20.128 6.98537 20.105 6.81648 20.1472 6.7242C20.2202 6.57059 20.4544 6.57447 20.5274 6.7242C20.5505 6.77028 20.5466 6.82398 20.5466 6.87782V7.42694V12.9528V15.7598C20.5466 16.2013 20.5735 16.6507 20.5466 17.0922C20.5427 17.227 20.4736 17.3191 20.3393 17.3228C19.8477 17.342 19.8439 18.1101 20.3393 18.0908C20.9305 18.0639 21.3147 17.6108 21.3184 17.0386V16.4126V13.813V7.71901C21.3184 7.14297 21.4375 6.4096 20.8999 6.0256C20.2433 5.55712 19.3869 6.07167 19.3601 6.83961C19.3562 6.99711 19.3601 7.15836 19.3601 7.31574V13.0565V15.9557V16.8312C19.3601 17.0078 19.3486 17.196 19.3947 17.3688C19.506 17.7912 19.9054 18.0946 20.3393 18.0946C20.8345 18.0909 20.8345 17.3228 20.3393 17.3228L20.3393 17.3228Z" fill="#B9C9D2"/>
</svg>
