<svg width="14" height="18" viewBox="0 0 14 18" fill="none" xmlns="http://www.w3.org/2000/svg">
<path d="M6.25 12C6.25 12.4142 6.58579 12.75 7 12.75C7.41421 12.75 7.75 12.4142 7.75 12H6.25ZM7.75 10.5C7.75 10.0858 7.41421 9.75 7 9.75C6.58579 9.75 6.25 10.0858 6.25 10.5H7.75ZM4 6.75H10V5.25H4V6.75ZM12.25 9V13.5H13.75V9H12.25ZM10 15.75H4V17.25H10V15.75ZM1.75 13.5V9H0.25V13.5H1.75ZM4 15.75C2.75736 15.75 1.75 14.7426 1.75 13.5H0.25C0.25 15.5711 1.92893 17.25 4 17.25V15.75ZM12.25 13.5C12.25 14.7426 11.2426 15.75 10 15.75V17.25C12.0711 17.25 13.75 15.5711 13.75 13.5H12.25ZM10 6.75C11.2426 6.75 12.25 7.75736 12.25 9H13.75C13.75 6.92893 12.0711 5.25 10 5.25V6.75ZM4 5.25C1.92893 5.25 0.25 6.92893 0.25 9H1.75C1.75 7.75736 2.75736 6.75 4 6.75V5.25ZM4.75 6V4.5H3.25V6H4.75ZM9.25 4.5V6H10.75V4.5H9.25ZM7 2.25C8.24264 2.25 9.25 3.25736 9.25 4.5H10.75C10.75 2.42893 9.07107 0.75 7 0.75V2.25ZM4.75 4.5C4.75 3.25736 5.75736 2.25 7 2.25V0.75C4.92893 0.75 3.25 2.42893 3.25 4.5H4.75ZM7.75 12V10.5H6.25V12H7.75Z" fill="white"/>
</svg>
