<svg width="50" height="50" viewBox="0 0 50 50" fill="none" xmlns="http://www.w3.org/2000/svg">
<rect width="50" height="50" rx="10" fill="#FF879D" fill-opacity="0.15"/>
<path fill-rule="evenodd" clip-rule="evenodd" d="M15.0039 32.1173V17.8923C15.0039 15.6832 16.7948 13.8923 19.0039 13.8923H31.0064C33.2155 13.8923 35.0064 15.6832 35.0064 17.8923V25.5705C35.0064 25.8493 34.9773 26.1251 34.9208 26.3939H30.5614C27.6462 26.3939 25.283 28.7571 25.283 31.6723V36.0317C25.0142 36.0882 24.7384 36.1173 24.4596 36.1173H19.0039C16.7948 36.1173 15.0039 34.3265 15.0039 32.1173ZM26.9498 35.2476C27.0676 35.1539 27.1805 35.0532 27.288 34.9458L33.8348 28.3989C33.9423 28.2915 34.043 28.1785 34.1367 28.0608H30.5614C28.5668 28.0608 26.9498 29.6777 26.9498 31.6723V35.2476ZM19.7267 19.4486C19.7267 18.9883 20.0999 18.6151 20.5602 18.6151H29.4502C29.9105 18.6151 30.2836 18.9883 30.2836 19.4486C30.2836 19.9089 29.9105 20.282 29.4502 20.282H20.5602C20.0999 20.282 19.7267 19.9089 19.7267 19.4486ZM20.5602 23.0601C20.0999 23.0601 19.7267 23.4333 19.7267 23.8936C19.7267 24.3539 20.0999 24.727 20.5602 24.727H25.0052C25.4655 24.727 25.8386 24.3539 25.8386 23.8936C25.8386 23.4333 25.4655 23.0601 25.0052 23.0601H20.5602Z" fill="#FF879D"/>
</svg>
