<svg width="50" height="50" viewBox="0 0 50 50" fill="none" xmlns="http://www.w3.org/2000/svg">
<rect width="50" height="50" rx="10" fill="#00A0FF" fill-opacity="0.15"/>
<path fill-rule="evenodd" clip-rule="evenodd" d="M19.1708 13.8923C18.0967 13.8923 17.2261 14.763 17.2261 15.837C17.2261 16.911 18.0967 17.7817 19.1708 17.7817H30.8389C31.9129 17.7817 32.7836 16.911 32.7836 15.837C32.7836 14.763 31.9129 13.8923 30.8389 13.8923H19.1708ZM17.2261 23.4486C17.2261 21.2394 19.0169 19.4486 21.2261 19.4486H28.7836C30.9927 19.4486 32.7836 21.2394 32.7836 23.4486V32.1173C32.7836 34.3265 30.9927 36.1173 28.7836 36.1173H21.2261C19.0169 36.1173 17.2261 34.3265 17.2261 32.1173V23.4486ZM28.3386 27.2273C28.3386 29.0685 26.846 30.5611 25.0048 30.5611C23.1636 30.5611 21.6711 29.0685 21.6711 27.2273C21.6711 25.3862 23.1636 23.8936 25.0048 23.8936C26.846 23.8936 28.3386 25.3862 28.3386 27.2273Z" fill="#00A0FF"/>
</svg>
