<svg width="50" height="50" viewBox="0 0 50 50" fill="none" xmlns="http://www.w3.org/2000/svg">
<rect width="50" height="50" rx="10" fill="#9077E7" fill-opacity="0.15"/>
<path d="M26.8796 31.3425H24.5924C23.9907 31.3425 23.5 30.8518 23.5 30.2501V19.68C23.5 19.0783 23.9907 18.5876 24.5924 18.5876H26.8796C27.4813 18.5876 27.972 19.0783 27.972 19.68V30.2501C27.972 30.8518 27.4813 31.3425 26.8796 31.3425Z" fill="#9077E7"/>
<path d="M26.8798 30.9158H25.382C24.9211 30.9158 24.2341 31.0481 23.9909 30.5359C23.897 30.3396 23.9269 30.0878 23.9269 29.8746V28.6583V21.097V19.9705C23.9269 19.6931 23.9056 19.4243 24.1232 19.2068C24.3024 19.0276 24.5158 19.0105 24.7505 19.0105H25.5869H26.5598C26.739 19.0105 26.9396 18.9892 27.1103 19.0489C27.4815 19.1896 27.5456 19.5267 27.5456 19.8682V20.9009V24.575V28.4284C27.5456 29.0301 27.5669 29.6403 27.5456 30.2421C27.5327 30.6216 27.2553 30.9033 26.8798 30.9161C26.3336 30.9289 26.3293 31.7823 26.8798 31.7695C27.7503 31.7439 28.3947 31.061 28.3988 30.1949V29.3543V25.6845V21.575V20.1883C28.3988 19.9792 28.4116 19.7657 28.3904 19.5568C28.3349 18.9807 27.9765 18.4857 27.4387 18.2681C27.17 18.1614 26.8968 18.1572 26.6151 18.1572H24.7333C24.3962 18.1572 24.0633 18.2041 23.7733 18.3962C23.3338 18.6865 23.0819 19.1559 23.0692 19.6806C23.0648 19.8813 23.0692 20.0817 23.0692 20.2823V23.7174V27.9164C23.0692 28.6845 23.0564 29.457 23.0692 30.2251C23.082 31.0871 23.7477 31.7528 24.6097 31.7698C25.19 31.7782 25.7746 31.7698 26.355 31.7698H26.8756C27.4303 31.7695 27.4303 30.9161 26.8798 30.9161L26.8798 30.9158Z" fill="#9077E7"/>
<path d="M20.6111 31.3426C20.2484 31.3426 19.9497 31.0482 19.9497 30.6812V19.2451C19.9497 18.8824 20.2441 18.5837 20.6111 18.5837C20.9738 18.5837 21.2725 18.8781 21.2725 19.2451V30.677C21.2681 31.044 20.9738 31.3427 20.6111 31.3427V31.3426Z" fill="#9077E7"/>
<path d="M20.611 30.9157C20.3806 30.9157 20.3763 30.7109 20.3763 30.5231V29.7635V26.9342V20.4523V19.5477C20.3763 19.4282 20.3507 19.2405 20.3975 19.138C20.4787 18.9673 20.739 18.9716 20.8201 19.138C20.8457 19.1892 20.8414 19.2489 20.8414 19.3087V19.9189V26.0595V29.1788C20.8414 29.6695 20.8713 30.1688 20.8414 30.6594C20.8329 30.809 20.7561 30.9071 20.611 30.9157C20.0648 30.937 20.0605 31.7905 20.611 31.7691C21.268 31.7392 21.6949 31.2357 21.6991 30.5999V29.9043V27.0154V20.2435C21.6991 19.6033 21.8314 18.7884 21.234 18.3617C20.5043 17.8411 19.5527 18.4129 19.5229 19.2662C19.5186 19.4413 19.5229 19.6205 19.5229 19.7953V26.1748V29.3965V30.3694C19.5229 30.5657 19.5101 30.7748 19.5613 30.9668C19.685 31.4362 20.1288 31.7733 20.611 31.7733C21.1572 31.7691 21.1572 30.9157 20.611 30.9157L20.611 30.9157Z" fill="#9077E7"/>
<path d="M30.8611 31.3426C30.4984 31.3426 30.1997 31.0482 30.1997 30.6812V19.2451C30.1997 18.8824 30.4941 18.5837 30.8611 18.5837C31.2238 18.5837 31.5225 18.8781 31.5225 19.2451V30.677C31.5225 31.044 31.2281 31.3427 30.8611 31.3427V31.3426Z" fill="#9077E7"/>
<path d="M30.861 30.9157C30.6306 30.9157 30.6263 30.7109 30.6263 30.5231V29.7635V26.9342V20.4523V19.5477C30.6263 19.4282 30.6007 19.2405 30.6475 19.138C30.7287 18.9673 30.989 18.9716 31.0701 19.138C31.0957 19.1892 31.0914 19.2489 31.0914 19.3087V19.9189V26.0595V29.1788C31.0914 29.6695 31.1213 30.1688 31.0914 30.6594C31.0872 30.809 31.0104 30.9071 30.861 30.9157C30.3148 30.937 30.3105 31.7905 30.861 31.7691C31.518 31.7392 31.9449 31.2357 31.9491 30.5999V29.9043V27.0154V20.2435C31.9491 19.6033 32.0814 18.7884 31.484 18.3617C30.7543 17.8411 29.8027 18.4129 29.7729 19.2662C29.7686 19.4413 29.7729 19.6205 29.7729 19.7953V26.1748V29.3965V30.3694C29.7729 30.5657 29.7601 30.7748 29.8113 30.9668C29.935 31.4362 30.3788 31.7733 30.861 31.7733C31.4115 31.7691 31.4115 30.9157 30.861 30.9157L30.861 30.9157Z" fill="#9077E7"/>
<path d="M17.0053 31.3467H15.8873C15.3838 31.3467 14.9741 30.937 14.9741 30.4335V19.5053C14.9741 19.0018 15.3838 18.592 15.8873 18.592H17.0053C17.5088 18.592 17.9186 19.0018 17.9186 19.5053V30.4293C17.9229 30.9371 17.5131 31.3468 17.0053 31.3468V31.3467Z" fill="#9077E7"/>
<path d="M17.0052 30.9199H16.3224C16.1176 30.9199 15.853 30.9583 15.6738 30.8731C15.4051 30.7451 15.4007 30.4891 15.4007 30.2329V27.839V20.7852V19.7781C15.4007 19.5733 15.3751 19.3683 15.5075 19.202C15.6697 19.0013 15.8957 19.0185 16.1305 19.0185H16.937C17.2953 19.0228 17.4917 19.2447 17.4917 19.5903V25.3296V28.8244C17.4917 29.3578 17.5173 29.8956 17.4917 30.429C17.4832 30.7065 17.2869 30.9113 17.0053 30.9198C16.4591 30.9369 16.4548 31.7903 17.0053 31.7732C17.7819 31.7476 18.3409 31.1417 18.3452 30.3777V29.6268V26.3795V19.7611C18.3452 19.3941 18.3196 19.0399 18.0892 18.7243C17.8161 18.3531 17.4107 18.1696 16.9541 18.1652C16.6682 18.1609 16.378 18.1652 16.0921 18.1652C15.7593 18.1652 15.435 18.1952 15.1489 18.3872C14.7691 18.6431 14.5559 19.0572 14.5472 19.5095C14.5429 19.6887 14.5472 19.8722 14.5472 20.0514V27.0709V29.9854C14.5472 30.1518 14.5387 30.3225 14.5472 30.4932C14.5771 31.0437 14.927 31.5088 15.4433 31.7008C15.7208 31.8032 16.0323 31.7776 16.3223 31.7776H17.0051C17.5558 31.7734 17.5558 30.9199 17.0053 30.9199L17.0052 30.9199Z" fill="#9077E7"/>
<path d="M34.2621 31.3467C33.8994 31.3467 33.6007 31.0523 33.6007 30.6853L33.6006 19.2534C33.6006 18.8907 33.895 18.592 34.262 18.592C34.6247 18.592 34.9233 18.8864 34.9233 19.2534L34.9235 30.6853C34.9235 31.0523 34.629 31.3469 34.2621 31.3469V31.3467Z" fill="#9077E7"/>
<path d="M34.2618 30.9199C34.0315 30.9199 34.0271 30.7151 34.0271 30.5273V29.7676V26.9384V20.4564V19.5519C34.0271 19.4324 34.0015 19.2447 34.0484 19.1421C34.1295 18.9714 34.3898 18.9757 34.471 19.1421C34.4966 19.1933 34.4922 19.253 34.4922 19.3128V19.9231V26.0636V29.1829C34.4922 29.6736 34.5222 30.1729 34.4922 30.6636C34.4879 30.8133 34.4111 30.9157 34.2619 30.9199C33.7157 30.9412 33.7113 31.7947 34.2619 31.7732C34.9189 31.7433 35.3458 31.2398 35.35 30.604V29.9084V27.0195V20.2476C35.35 19.6075 35.4823 18.7925 34.8849 18.3658C34.1552 17.8452 33.2035 18.417 33.1738 19.2704C33.1695 19.4454 33.1738 19.6246 33.1738 19.7995V26.1789V29.4006V30.3735C33.1738 30.5698 33.161 30.779 33.2122 30.9709C33.3359 31.4403 33.7797 31.7774 34.2619 31.7774C34.8122 31.7734 34.8122 30.9199 34.2619 30.9199L34.2618 30.9199Z" fill="#9077E7"/>
</svg>
