<svg width="50" height="50" viewBox="0 0 50 50" fill="none" xmlns="http://www.w3.org/2000/svg">
<rect width="50" height="50" rx="10" fill="#FF7E17" fill-opacity="0.15"/>
<path fill-rule="evenodd" clip-rule="evenodd" d="M26.3887 15.0001C26.3887 14.5398 26.7618 14.1667 27.222 14.1667H32.7776C33.2378 14.1667 33.6109 14.5398 33.6109 15.0001C33.6109 15.4603 33.2378 15.8334 32.7776 15.8334H32.222V21.6667H27.7776V15.8334H27.222C26.7618 15.8334 26.3887 15.4603 26.3887 15.0001ZM22.222 21.6667H27.7776V29.4445C27.7776 30.6718 28.7725 31.6667 29.9998 31.6667C31.2271 31.6667 32.222 30.6718 32.222 29.4445V21.6667H34.1109C35.2155 21.6667 36.1109 22.5622 36.1109 23.6667V33.0001C36.1109 34.1047 35.2155 35.0001 34.1109 35.0001L15.8887 35.0001C14.7841 35.0001 13.8887 34.1047 13.8887 33.0001V23.6667C13.8887 22.5622 14.7841 21.6667 15.8887 21.6667H17.7776V29.4445C17.7776 30.6718 18.7725 31.6667 19.9998 31.6667C21.2271 31.6667 22.222 30.6718 22.222 29.4445V21.6667ZM22.222 15.8334H22.7776C23.2378 15.8334 23.6109 15.4603 23.6109 15.0001C23.6109 14.5398 23.2378 14.1667 22.7776 14.1667H17.222C16.7618 14.1667 16.3887 14.5398 16.3887 15.0001C16.3887 15.4603 16.7618 15.8334 17.222 15.8334H17.7776V21.6667H22.222V15.8334Z" fill="#FF7E17"/>
</svg>
