<svg width="50" height="50" viewBox="0 0 50 50" fill="none" xmlns="http://www.w3.org/2000/svg">
<rect width="50" height="50" rx="10" fill="#4E5EEE" fill-opacity="0.15"/>
<path fill-rule="evenodd" clip-rule="evenodd" d="M13.8926 17.2261C13.8926 15.3849 15.3851 13.8923 17.2263 13.8923H32.7838C34.625 13.8923 36.1176 15.3849 36.1176 17.2261V26.3939H13.8926V17.2261ZM13.8926 28.0608H36.1176V28.3386C36.1176 30.1798 34.625 31.6723 32.7838 31.6723H25.8385V34.4505H28.3388C28.7991 34.4505 29.1723 34.8236 29.1723 35.2839C29.1723 35.7442 28.7991 36.1173 28.3388 36.1173H21.6713C21.211 36.1173 20.8379 35.7442 20.8379 35.2839C20.8379 34.8236 21.211 34.4505 21.6713 34.4505H24.1716V31.6723H17.2263C15.3851 31.6723 13.8926 30.1798 13.8926 28.3386V28.0608Z" fill="#4E5EEE"/>
</svg>
