<svg width="24" height="24" viewBox="0 0 24 24" fill="none" xmlns="http://www.w3.org/2000/svg">
<path d="M14.5 3V2.25C14.0858 2.25 13.75 2.58579 13.75 3H14.5ZM18.5 3H19.25C19.25 2.58579 18.9142 2.25 18.5 2.25V3ZM5.5 3V2.25C5.08579 2.25 4.75 2.58579 4.75 3H5.5ZM9.5 3H10.25C10.25 2.58579 9.91421 2.25 9.5 2.25V3ZM13.5 2.25C13.0858 2.25 12.75 2.58579 12.75 3C12.75 3.41421 13.0858 3.75 13.5 3.75V2.25ZM19.5 3.75C19.9142 3.75 20.25 3.41421 20.25 3C20.25 2.58579 19.9142 2.25 19.5 2.25V3.75ZM2 19H1.25H2ZM4.5 2.25C4.08579 2.25 3.75 2.58579 3.75 3C3.75 3.41421 4.08579 3.75 4.5 3.75V2.25ZM10.5 3.75C10.9142 3.75 11.25 3.41421 11.25 3C11.25 2.58579 10.9142 2.25 10.5 2.25V3.75ZM14.5 3.75H18.5V2.25H14.5V3.75ZM17.75 3V16H19.25V3H17.75ZM15.25 16V3H13.75V16H15.25ZM16.5 17.25C15.8096 17.25 15.25 16.6904 15.25 16H13.75C13.75 17.5188 14.9812 18.75 16.5 18.75V17.25ZM17.75 16C17.75 16.6904 17.1904 17.25 16.5 17.25V18.75C18.0188 18.75 19.25 17.5188 19.25 16H17.75ZM5.5 3.75H9.5V2.25H5.5V3.75ZM8.75 3V16H10.25V3H8.75ZM6.25 16V3H4.75V16H6.25ZM7.5 17.25C6.80964 17.25 6.25 16.6904 6.25 16H4.75C4.75 17.5188 5.98122 18.75 7.5 18.75V17.25ZM8.75 16C8.75 16.6904 8.19036 17.25 7.5 17.25V18.75C9.01878 18.75 10.25 17.5188 10.25 16H8.75ZM13.5 3.75H19.5V2.25H13.5V3.75ZM4 9.75H20V8.25H4V9.75ZM21.25 11V19H22.75V11H21.25ZM20 20.25H4V21.75H20V20.25ZM2.75 19V11H1.25V19H2.75ZM4 20.25C3.30964 20.25 2.75 19.6904 2.75 19H1.25C1.25 20.5188 2.48122 21.75 4 21.75V20.25ZM21.25 19C21.25 19.6904 20.6904 20.25 20 20.25V21.75C21.5188 21.75 22.75 20.5188 22.75 19H21.25ZM20 9.75C20.6904 9.75 21.25 10.3096 21.25 11H22.75C22.75 9.48122 21.5188 8.25 20 8.25V9.75ZM4 8.25C2.48122 8.25 1.25 9.48122 1.25 11H2.75C2.75 10.3096 3.30964 9.75 4 9.75V8.25ZM4.5 3.75H10.5V2.25H4.5V3.75Z" fill="#B9C9D2"/>
<path d="M14.5 3V2.25C14.0858 2.25 13.75 2.58579 13.75 3H14.5ZM18.5 3H19.25C19.25 2.58579 18.9142 2.25 18.5 2.25V3ZM5.5 3V2.25C5.08579 2.25 4.75 2.58579 4.75 3H5.5ZM9.5 3H10.25C10.25 2.58579 9.91421 2.25 9.5 2.25V3ZM13.5 2.25C13.0858 2.25 12.75 2.58579 12.75 3C12.75 3.41421 13.0858 3.75 13.5 3.75V2.25ZM19.5 3.75C19.9142 3.75 20.25 3.41421 20.25 3C20.25 2.58579 19.9142 2.25 19.5 2.25V3.75ZM4.5 2.25C4.08579 2.25 3.75 2.58579 3.75 3C3.75 3.41421 4.08579 3.75 4.5 3.75V2.25ZM10.5 3.75C10.9142 3.75 11.25 3.41421 11.25 3C11.25 2.58579 10.9142 2.25 10.5 2.25V3.75ZM14.5 3.75H18.5V2.25H14.5V3.75ZM17.75 3V16H19.25V3H17.75ZM15.25 16V3H13.75V16H15.25ZM16.5 17.25C15.8096 17.25 15.25 16.6904 15.25 16H13.75C13.75 17.5188 14.9812 18.75 16.5 18.75V17.25ZM17.75 16C17.75 16.6904 17.1904 17.25 16.5 17.25V18.75C18.0188 18.75 19.25 17.5188 19.25 16H17.75ZM5.5 3.75H9.5V2.25H5.5V3.75ZM8.75 3V16H10.25V3H8.75ZM6.25 16V3H4.75V16H6.25ZM7.5 17.25C6.80964 17.25 6.25 16.6904 6.25 16H4.75C4.75 17.5188 5.98122 18.75 7.5 18.75V17.25ZM8.75 16C8.75 16.6904 8.19036 17.25 7.5 17.25V18.75C9.01878 18.75 10.25 17.5188 10.25 16H8.75ZM13.5 3.75H19.5V2.25H13.5V3.75ZM4.5 3.75H10.5V2.25H4.5V3.75Z" fill="#B9C9D2"/>
</svg>
